<svg width="13" height="16" viewBox="0 0 13 16" fill="none" xmlns="http://www.w3.org/2000/svg">
<path d="M11.4682 5.37489L11.54 5.37597C11.8066 5.40037 12.0109 5.64554 12.0251 5.94065L12.0182 6.1052L11.7912 9.18619L11.553 12.1929C11.5026 12.7931 11.4575 13.2994 11.4186 13.6979C11.2833 15.0868 10.4694 15.9457 9.24241 15.9712C7.33052 16.0104 5.49275 16.0101 3.70811 15.9674C2.51662 15.9397 1.7147 15.0716 1.58168 13.704L1.48975 12.6963L1.32909 10.7419L1.16451 8.5971L0.976329 6.02256C0.95294 5.69225 1.16971 5.40294 1.46051 5.37637C1.72706 5.35202 1.96329 5.5569 2.01883 5.84564L2.04045 6.0816L2.21715 8.49518L2.41008 10.9969C2.49662 12.0799 2.57167 12.9563 2.63173 13.572C2.70753 14.3514 3.07804 14.7525 3.73002 14.7676C5.50072 14.8099 7.32478 14.8103 9.22323 14.7713C9.91483 14.757 10.2912 14.3598 10.3686 13.5657L10.46 12.5635C10.4868 12.2547 10.5154 11.9137 10.5457 11.5433L10.7387 9.08289L10.9711 5.92586C10.9926 5.62307 11.2084 5.39097 11.4682 5.37489ZM0.528246 3.99164C0.236515 3.99165 1.10385e-05 3.72302 3.86923e-10 3.39164C-1.01179e-05 3.08787 0.198703 2.83682 0.456529 2.79708L0.528206 2.7916L2.82944 2.7915C3.10291 2.79149 3.34231 2.5916 3.42793 2.30361L3.44888 2.21468L3.62768 1.20443C3.78515 0.535342 4.29653 0.0589452 4.89583 0.00519165L5.00916 0.000121846L7.99047 1.06268e-09C8.59972 -2.48986e-05 9.1377 0.436971 9.34482 1.11225L9.37972 1.24161L9.55085 2.21419C9.60458 2.5189 9.82402 2.74647 10.0895 2.78532L10.1704 2.7912L12.4718 2.79111C12.7635 2.7911 13 3.05972 13 3.39111C13 3.69487 12.8013 3.94593 12.5435 3.98567L12.4718 3.99115L0.528246 3.99164ZM7.99051 1.20004L5.0092 1.20016C4.86099 1.20017 4.72925 1.29871 4.67453 1.42255L4.65598 1.47696L4.48482 2.45004C4.46389 2.56881 4.43355 2.68318 4.39479 2.79223L8.60511 2.79221C8.58092 2.72418 8.56 2.65407 8.54259 2.58211L8.51493 2.44964L8.35144 1.51422C8.31323 1.35191 8.19524 1.23309 8.05286 1.20593L7.99051 1.20004Z" fill="#5F5F5F"/>
</svg>
