<svg width="29" height="29" viewBox="0 0 29 29" fill="none" xmlns="http://www.w3.org/2000/svg">
<path d="M27.9399 26.7981C28.5259 26.7986 29.0005 27.292 29 27.9C28.9995 28.4574 28.6 28.9176 28.0821 28.9901L27.9381 29L16.869 28.99C16.2831 28.9895 15.8085 28.4961 15.809 27.8881C15.8094 27.3307 16.2089 26.8704 16.7268 26.798L16.8708 26.7881L27.9399 26.7981ZM17.1945 1.56C19.2049 -0.52257 22.4629 -0.519622 24.4699 1.56659L26.5535 3.73238C28.5606 5.81859 28.5578 9.1994 26.5474 11.282L10.8602 27.5325C9.96313 28.4617 8.74756 28.9825 7.4792 28.9813L1.06009 28.9755C0.46378 28.975 -0.0150011 28.4647 0.000359547 27.8462L0.167257 21.1252C0.200386 19.8549 0.702278 18.6443 1.56881 17.7467L17.1945 1.56ZM15.9774 5.92906L3.068 19.305C2.58633 19.804 2.30686 20.4781 2.28847 21.1834L2.14923 26.7738L7.48098 26.7794C8.10836 26.78 8.71187 26.5514 9.18842 26.1378L9.36096 25.9741L22.3343 12.5351L15.9774 5.92906ZM22.9682 3.12221C21.7892 1.89664 19.8747 1.89491 18.6936 3.11834L17.4802 4.37329L23.8355 10.9793L25.0482 9.72364C26.1637 8.56817 26.2271 6.73195 25.2374 5.49904L25.0518 5.288L22.9682 3.12221Z" fill="#F5F9FF"/>
</svg>
