<svg width="16" height="16" viewBox="0 0 16 16" fill="none" xmlns="http://www.w3.org/2000/svg">
<path id="Vector" d="M15.4151 14.7852C15.7384 14.7855 16.0003 15.0576 16 15.3931C15.9998 15.7006 15.7793 15.9546 15.4936 15.9945L15.4141 16L9.30706 15.9945C8.98377 15.9942 8.72191 15.722 8.72218 15.3865C8.72243 15.079 8.94285 14.8251 9.2286 14.7851L9.30804 14.7796L15.4151 14.7852ZM9.4866 0.860692C10.5958 -0.288315 12.3933 -0.286688 13.5007 0.864325L14.6502 2.05924C15.7576 3.21026 15.756 5.07553 14.6469 6.22454L5.99181 15.1903C5.4969 15.703 4.82624 15.9903 4.12646 15.9897L0.58488 15.9865C0.255879 15.9862 -0.00827646 15.7047 0.000198371 15.3634L0.0922797 11.6553C0.110558 10.9544 0.387464 10.2865 0.86555 9.79126L9.4866 0.860692ZM8.81512 3.2712L1.69269 10.651C1.42694 10.9263 1.27275 11.2982 1.2626 11.6874L1.18578 14.7718L4.12744 14.7748C4.47358 14.7752 4.80655 14.649 5.06947 14.4209L5.16467 14.3306L12.3224 6.91592L8.81512 3.2712ZM12.6721 1.7226C12.0216 1.04642 10.9653 1.04547 10.3137 1.72046L9.64426 2.41285L13.1506 6.05757L13.8197 5.36476C14.4351 4.72727 14.4701 3.71418 13.9241 3.03396L13.8217 2.91752L12.6721 1.7226Z" fill="#5F5F5F"/>
</svg>
