<svg width="35" height="40" viewBox="0 0 35 40" fill="none" xmlns="http://www.w3.org/2000/svg">
<path d="M23.6875 30.5556H11.3125M23.6875 30.5556H34L31.1022 27.5894C30.713 27.191 30.4044 26.7181 30.1938 26.1975C29.9832 25.677 29.8749 25.1192 29.875 24.5558V17.8889C29.8753 15.2689 29.0821 12.7132 27.6047 10.5737C26.1272 8.43414 24.0381 6.81603 21.625 5.94211V5.22222C21.625 4.10242 21.1904 3.02848 20.4168 2.23666C19.6432 1.44484 18.594 1 17.5 1C16.406 1 15.3568 1.44484 14.5832 2.23666C13.8096 3.02848 13.375 4.10242 13.375 5.22222V5.94211C8.56938 7.68167 5.125 12.3747 5.125 17.8889V24.5579C5.125 25.6937 4.68363 26.7851 3.89781 27.5894L1 30.5556H11.3125H23.6875ZM23.6875 30.5556V32.6667C23.6875 34.3464 23.0356 35.9573 21.8752 37.145C20.7148 38.3327 19.141 39 17.5 39C15.859 39 14.2852 38.3327 13.1248 37.145C11.9644 35.9573 11.3125 34.3464 11.3125 32.6667V30.5556H23.6875Z" stroke="#5F5F5F" stroke-linecap="round" stroke-linejoin="round"/>
</svg>
