<svg width="15" height="14" viewBox="0 0 15 14" fill="none" xmlns="http://www.w3.org/2000/svg">
<path fill-rule="evenodd" clip-rule="evenodd" d="M2.12718 5.94451C2.12709 3.48558 4.12671 1.48581 6.58564 1.48572C9.04457 1.48563 11.0443 3.48525 11.0444 5.94418C11.0445 8.40311 9.0449 10.4029 6.58597 10.403C4.12704 10.4031 2.12727 8.40344 2.12718 5.94451ZM13.7992 12.1069L11.2763 9.58341C12.0587 8.57722 12.5305 7.31616 12.5305 5.94439C12.5304 2.66656 9.86328 -0.000340282 6.58545 -0.000219342C3.30762 -9.84024e-05 0.640723 2.667 0.640844 5.94483C0.640965 9.22266 3.30806 11.8896 6.58589 11.8894C7.95766 11.8894 9.21869 11.4175 10.2248 10.6349L12.7485 13.1577C12.8934 13.3026 13.0836 13.3754 13.2739 13.3754C13.4641 13.3754 13.6543 13.3026 13.7992 13.1576C14.0898 12.8671 14.0898 12.3974 13.7992 12.1069Z" fill="#5F5F5F"/>
</svg>
