<svg width="40" height="40" viewBox="0 0 40 40" fill="none" xmlns="http://www.w3.org/2000/svg">
<path d="M16.7423 3.74612C17.6306 0.0846279 22.8392 0.0846279 23.7275 3.74612C23.8608 4.29617 24.1221 4.80699 24.4901 5.23698C24.8581 5.66698 25.3224 6.00401 25.8453 6.22064C26.3682 6.43726 26.9348 6.52737 27.4991 6.48362C28.0633 6.43987 28.6093 6.2635 29.0926 5.96886C32.3099 4.00884 35.9943 7.69118 34.0343 10.9106C33.7401 11.3937 33.564 11.9393 33.5204 12.5032C33.4767 13.0671 33.5667 13.6333 33.7831 14.1559C33.9995 14.6784 34.3361 15.1426 34.7656 15.5105C35.1951 15.8785 35.7054 16.1399 36.255 16.2736C39.9165 17.1618 39.9165 22.3705 36.255 23.2588C35.7049 23.392 35.1941 23.6533 34.7641 24.0213C34.3341 24.3893 33.9971 24.8537 33.7805 25.3765C33.5638 25.8994 33.4737 26.466 33.5175 27.0303C33.5612 27.5946 33.7376 28.1406 34.0322 28.6238C35.9922 31.8412 32.3099 35.5256 29.0905 33.5656C28.6074 33.2713 28.0618 33.0953 27.4979 33.0516C26.934 33.008 26.3678 33.098 25.8452 33.3144C25.3227 33.5307 24.8585 33.8674 24.4906 34.2969C24.1226 34.7264 23.8612 35.2367 23.7275 35.7862C22.8392 39.4477 17.6306 39.4477 16.7423 35.7862C16.6091 35.2362 16.3478 34.7254 15.9798 34.2954C15.6118 33.8654 15.1474 33.5283 14.6246 33.3117C14.1017 33.0951 13.5351 33.005 12.9708 33.0487C12.4065 33.0925 11.8605 33.2688 11.3773 33.5635C8.15993 35.5235 4.47551 31.8412 6.43553 28.6217C6.72974 28.1387 6.90583 27.593 6.94948 27.0292C6.99313 26.4653 6.90311 25.899 6.68673 25.3765C6.47035 24.8539 6.13373 24.3898 5.70422 24.0218C5.27471 23.6538 4.76443 23.3924 4.21487 23.2588C0.553378 22.3705 0.553378 17.1618 4.21487 16.2736C4.76492 16.1403 5.27574 15.879 5.70573 15.511C6.13573 15.143 6.47276 14.6787 6.68939 14.1558C6.90601 13.6329 6.99612 13.0663 6.95237 12.502C6.90862 11.9377 6.73225 11.3918 6.43761 10.9085C4.47759 7.69118 8.15993 4.00676 11.3794 5.96678C13.4562 7.23454 16.1668 6.11274 16.7423 3.74612Z" stroke="#5F5F5F" stroke-linecap="round" stroke-linejoin="round"/>
<path d="M26.4903 19.7662C26.4903 21.4252 25.8312 23.0163 24.6581 24.1894C23.485 25.3625 21.8939 26.0216 20.2349 26.0216C18.5758 26.0216 16.9848 25.3625 15.8117 24.1894C14.6385 23.0163 13.9795 21.4252 13.9795 19.7662C13.9795 18.1071 14.6385 16.5161 15.8117 15.3429C16.9848 14.1698 18.5758 13.5108 20.2349 13.5108C21.8939 13.5108 23.485 14.1698 24.6581 15.3429C25.8312 16.5161 26.4903 18.1071 26.4903 19.7662V19.7662Z" stroke="#5F5F5F" stroke-linecap="round" stroke-linejoin="round"/>
</svg>
